<svg xmlns="http://www.w3.org/2000/svg" version="1.1" xmlns:xlink="http://www.w3.org/1999/xlink" xmlns:svgjs="http://svgjs.dev/svgjs" width="32" height="32"><svg width="32" height="32" viewBox="0 0 32 32" fill="none" xmlns="http://www.w3.org/2000/svg">
<rect width="32" height="32" rx="6" fill="white"></rect>
<path d="M24.1822 22.8522C22.5533 22.8522 21.174 22.537 20.0443 21.9064C18.9145 21.2627 18.0673 20.4155 17.5024 19.3646C16.9507 18.3005 16.6748 17.1445 16.6748 15.8966C16.6748 14.6618 16.9638 13.5189 17.5418 12.468C18.1329 11.4171 19.0065 10.5764 20.1625 9.94582C21.3185 9.31527 22.7109 9 24.3398 9C25.8637 9 27.2036 9.29557 28.3596 9.8867L27.6502 12.3695C27.1642 12.1199 26.6584 11.9228 26.133 11.7783C25.6075 11.6207 25.0098 11.5419 24.3398 11.5419C23.486 11.5419 22.7438 11.7389 22.1132 12.133C21.4958 12.514 21.0229 13.0394 20.6945 13.7094C20.3792 14.3662 20.2216 15.1018 20.2216 15.9163C20.2216 17.2036 20.5632 18.2611 21.2462 19.0887C21.9293 19.9031 22.908 20.3104 24.1822 20.3104C25.2725 20.3104 26.4482 20.0411 27.7093 19.5025L28.3793 21.9261C27.8407 22.202 27.197 22.4253 26.4482 22.5961C25.6995 22.7669 24.9441 22.8522 24.1822 22.8522Z" fill="#3470FF"></path>
<path d="M9.43843 17.6897H7.5468V22.6158H4V9.2168H9.35962C11.2775 9.2168 12.6765 9.5452 13.5567 10.202C14.4368 10.8457 14.8769 11.8638 14.8769 13.2562C14.8769 15.069 14.2135 16.2841 12.8867 16.9015L16.6503 22.6158H12.5517L9.43843 17.6897ZM7.5468 15.2267H9.35962C10.0558 15.2267 10.555 15.0822 10.8572 14.7932C11.1724 14.5042 11.3301 14.0575 11.3301 13.4533C11.3301 12.8227 11.179 12.3695 10.8769 12.0936C10.5747 11.8178 10.069 11.6799 9.35962 11.6799H7.5468V15.2267Z" fill="#101828"></path>
</svg><style>@media (prefers-color-scheme: light) { :root { filter: none; } }
@media (prefers-color-scheme: dark) { :root { filter: none; } }
</style></svg>